<svg xmlns="http://www.w3.org/2000/svg"> 
<symbol id="tiktok" viewBox="0 0 30 30">
   <path d="M24,4H6C4.895,4,4,4.895,4,6v18c0,1.105,0.895,2,2,2h18c1.105,0,2-0.895,2-2V6C26,4.895,25.104,4,24,4z M22.689,13.474 c-0.13,0.012-0.261,0.02-0.393,0.02c-1.495,0-2.809-0.768-3.574-1.931c0,3.049,0,6.519,0,6.577c0,2.685-2.177,4.861-4.861,4.861 C11.177,23,9,20.823,9,18.139c0-2.685,2.177-4.861,4.861-4.861c0.102,0,0.201,0.009,0.3,0.015v2.396c-0.1-0.012-0.197-0.03-0.3-0.03 c-1.37,0-2.481,1.111-2.481,2.481s1.11,2.481,2.481,2.481c1.371,0,2.581-1.08,2.581-2.45c0-0.055,0.024-11.17,0.024-11.17h2.289 c0.215,2.047,1.868,3.663,3.934,3.811V13.474z"/>
   </symbol>
   <symbol id="insta" viewBox="0 0 30 30">
    <path d="M 9.9980469 3 C 6.1390469 3 3 6.1419531 3 10.001953 L 3 20.001953 C 3 23.860953 6.1419531 27 10.001953 27 L 20.001953 27 C 23.860953 27 27 23.858047 27 19.998047 L 27 9.9980469 C 27 6.1390469 23.858047 3 19.998047 3 L 9.9980469 3 z M 22 7 C 22.552 7 23 7.448 23 8 C 23 8.552 22.552 9 22 9 C 21.448 9 21 8.552 21 8 C 21 7.448 21.448 7 22 7 z M 15 9 C 18.309 9 21 11.691 21 15 C 21 18.309 18.309 21 15 21 C 11.691 21 9 18.309 9 15 C 9 11.691 11.691 9 15 9 z M 15 11 A 4 4 0 0 0 11 15 A 4 4 0 0 0 15 19 A 4 4 0 0 0 19 15 A 4 4 0 0 0 15 11 z"/>
</svg>
